<?xml version="1.0" encoding="utf-8"?>
<!-- Svg Vector Icons : http://www.onlinewebfonts.com/icon -->
<!DOCTYPE svg PUBLIC "-//W3C//DTD SVG 1.1//EN" "http://www.w3.org/Graphics/SVG/1.1/DTD/svg11.dtd">
<svg version="1.1" xmlns="http://www.w3.org/2000/svg" xmlns:xlink="http://www.w3.org/1999/xlink" x="0px" y="0px" viewBox="0 0 256 256" enable-background="new 0 0 256 256" xml:space="preserve">
<metadata> Svg Vector Icons : http://www.onlinewebfonts.com/icon </metadata>
<g><g><g><path fill="#000000" d="M133.7,46.8c-18.6,2.3-38,10.3-51.7,21.1l-7.4,5.9l-12.4,2.3C33.1,81.4,18.9,86.9,13.4,95c-3.9,5.7-4.6,21.4-1.4,28.9l1.3,3.1h8.6h8.7l0.5-2.5c2.2-10.5,6.6-16.7,14.6-20.6c15.8-7.8,35,2.1,37.8,19.4l0.6,3.7h49H182v-3c0-3.1,3.3-10.7,6-13.7c2.7-3.1,7.9-6.7,11.3-7.8c2.3-0.8,5-3.4,9.3-8.7l6-7.4h12.1c6.7,0,12.1,0.1,12.1,0.3c0,0.2-2.6,5.2-5.9,11.3l-6,11l2.3,3c2.6,3.4,5,9.7,5,12.9c0,2.1,0.3,2.2,5.9,2.2h5.9v-18.8V89.3l-7.8-6.6c-21.7-18.8-47.6-31.7-70.7-35.5C158.3,45.7,143.9,45.5,133.7,46.8z M161.7,54.8c14.8,1.7,33,7.6,45.8,14.9l5.6,3.2h-33.5h-33.6V64c0-4.9,0.3-9.2,0.6-9.5C147.3,53.7,152.2,53.8,161.7,54.8z M136.9,63.9v9h-25c-25,0-25.1-0.1-22.8-1.8c3.7-2.8,16.1-8.7,23.9-11.2c6-2,18.4-4.7,22.8-5C136.6,54.8,136.9,57.2,136.9,63.9z"/><path fill="#000000" d="M215.3,96c-1.5,1.9-16.2,19.8-32.7,40s-30.4,36.5-30.8,36.5c-0.5,0-7.3-7.6-15.1-17l-14.4-16.9h-9.4c-7.2,0-9.4,0.3-9,1.1c0.3,0.6,9.6,16.6,20.7,35.4l20.2,34.3l10.4,0.3l10.3,0.3l25.2-47.2c13.9-26,27.9-52.1,31.2-58.2c3.3-6,5.8-11.2,5.5-11.5c-0.3-0.4-2.4-0.5-4.8-0.5C218.6,92.7,217.9,93.1,215.3,96z"/><path fill="#000000" d="M49,109.6c-15.2,8-14.9,29.4,0.6,35.8c4.6,2,11.8,1.8,15.9-0.3c4.1-2.2,8.7-6.9,10.1-10.5c1.4-3.8,1.3-11.3-0.3-15c-1.6-4-6.5-8.8-10.3-10.4C61,107.6,52.3,107.8,49,109.6z"/><path fill="#000000" d="M215.3,130.7c-4.2,7.9-7.8,14.9-8,15.4c-0.2,0.6,1.1,0.8,3.9,0.5c9.3-1.1,16.3-9.5,16.3-19.2c-0.1-5-2.2-11.3-3.9-11.3C223.3,116.2,219.6,122.7,215.3,130.7z"/></g></g></g>
</svg>