<?xml version="1.0" ?><svg viewBox="0 0 64 64" xmlns="http://www.w3.org/2000/svg"><defs><style>.cls-1{fill:#758190;}.cls-2{fill:#f9d18b;}.cls-3{fill:#ed5c58;}.cls-4{fill:#fbe3b9;}.cls-5{fill:#7fcdee;}.cls-6{fill:#b2e1f5;}.cls-7{fill:#fff;}.cls-8{fill:none;stroke:#000;stroke-linejoin:round;stroke-width:2px;}</style></defs><title/><g data-name="Layer 21" id="Layer_21"><polygon class="cls-1" points="48 38.308 48 26 44 26 44 34.615 48 38.308"/><path class="cls-2" d="M4,56a2,2,0,0,1-2-2V46a4,4,0,0,1,4-4H58a4,4,0,0,1,4,4v8a2,2,0,0,1-2,2Z"/><path class="cls-3" d="M59,48h3V46a4,4,0,0,0-4-4H56v3A3,3,0,0,0,59,48Z"/><path class="cls-4" d="M9,52A36.8,36.8,0,0,0,34.569,42H6a4,4,0,0,0-4,4v5.369A38.96,38.96,0,0,0,9,52Z"/><path class="cls-3" d="M2,46v4a4,4,0,0,0,4-4V42A4,4,0,0,0,2,46Z"/><path class="cls-5" d="M8,42l4.734-7.1A11,11,0,0,1,21.887,30H34.7a11,11,0,0,1,7.461,2.917L52,42Z"/><path class="cls-6" d="M34.569,42a31.323,31.323,0,0,0,6.876-9.684A11,11,0,0,0,34.7,30H21.887a11,11,0,0,0-9.153,4.9L8,42Z"/><rect class="cls-2" height="20" width="32" x="30" y="2"/><path class="cls-4" d="M30,2V16.723A19.852,19.852,0,0,0,37,18c9.779,0,17.825-7,18.876-16Z"/><circle class="cls-1" cx="14" cy="56" r="6"/><circle class="cls-7" cx="14" cy="56" r="2"/><circle class="cls-1" cx="48" cy="56" r="6"/><circle class="cls-7" cx="48" cy="56" r="2"/><rect class="cls-1" height="12" width="4" x="25" y="30"/><rect class="cls-2" height="4" width="16" x="20" y="26"/><rect class="cls-1" height="4" width="8" x="42" y="22"/><path class="cls-8" d="M8,56H4a2,2,0,0,1-2-2V46a4,4,0,0,1,4-4H58a4,4,0,0,1,4,4v8a2,2,0,0,1-2,2H54"/><path class="cls-8" d="M8,42l4.734-7.1A11,11,0,0,1,21.887,30H34.7a11,11,0,0,1,7.461,2.917L52,42"/><path class="cls-8" d="M62,48H59a3,3,0,0,1-3-3V42"/><circle class="cls-8" cx="48" cy="56" r="6"/><circle class="cls-8" cx="14" cy="56" r="6"/><path class="cls-8" d="M6,42v4a4,4,0,0,1-4,4H2"/><polyline class="cls-8" points="36.023 30 36.023 26 20 26 20 30"/><circle class="cls-8" cx="48" cy="56" r="2"/><circle class="cls-8" cx="14" cy="56" r="2"/><line class="cls-8" x1="42" x2="20" y1="56" y2="56"/><line class="cls-8" x1="25.023" x2="25.023" y1="30" y2="42"/><line class="cls-8" x1="29.023" x2="29.023" y1="30" y2="42"/><line class="cls-8" x1="23" x2="23" y1="47" y2="49"/><line class="cls-8" x1="25" x2="25" y1="45" y2="47"/><line class="cls-8" x1="27" x2="27" y1="47" y2="49"/><line class="cls-8" x1="29" x2="29" y1="45" y2="47"/><line class="cls-8" x1="31" x2="31" y1="47" y2="49"/><line class="cls-8" x1="33" x2="33" y1="45" y2="47"/><line class="cls-8" x1="35" x2="35" y1="47" y2="49"/><line class="cls-8" x1="37" x2="37" y1="45" y2="47"/><line class="cls-8" x1="39" x2="39" y1="47" y2="49"/><rect class="cls-8" height="20" width="32" x="30" y="2"/><line class="cls-8" x1="33" x2="39" y1="9" y2="9"/><line class="cls-8" x1="36" x2="36" y1="9" y2="16"/><path class="cls-8" d="M42,16V11a2,2,0,0,1,2-2h0a2,2,0,0,1,2,2v5"/><line class="cls-8" x1="42" x2="46" y1="13" y2="13"/><path class="cls-8" d="M50,8h0a4.828,4.828,0,0,0,1.414,3.414l1.172,1.172A4.828,4.828,0,0,1,54,16h0"/><path class="cls-8" d="M54,8h0a4.828,4.828,0,0,1-1.414,3.414l-1.172,1.172A4.828,4.828,0,0,0,50,16h0"/><line class="cls-8" x1="58" x2="58" y1="8" y2="16"/><polyline class="cls-8" points="42 22 42 26 50 26 50 22"/><line class="cls-8" x1="44" x2="44" y1="26" y2="35"/><line class="cls-8" x1="48" x2="48" y1="26" y2="38"/></g></svg>